<?xml version="1.0" standalone="no"?>
<!DOCTYPE svg PUBLIC "-//W3C//DTD SVG 20010904//EN"
 "http://www.w3.org/TR/2001/REC-SVG-20010904/DTD/svg10.dtd">
<svg version="1.0" xmlns="http://www.w3.org/2000/svg"
 width="1468.000000pt" height="1468.000000pt" viewBox="0 0 1468.000000 1468.000000"
 preserveAspectRatio="xMidYMid meet">
<metadata>
Created by potrace 1.14, written by Peter Selinger 2001-2017
</metadata>
<g transform="translate(0.000000,1468.000000) scale(0.100000,-0.100000)"
fill="#000000" stroke="none">
<path d="M12770 13530 c-55 -5 -82 -15 -175 -64 -60 -32 -153 -81 -205 -109
-52 -27 -117 -62 -145 -77 -27 -15 -95 -51 -150 -80 -55 -29 -104 -56 -110
-60 -5 -4 -48 -27 -95 -52 -88 -46 -392 -215 -557 -309 -21 -12 -58 -33 -83
-47 -25 -14 -61 -35 -80 -47 -19 -12 -40 -24 -45 -26 -6 -2 -78 -44 -160 -92
-196 -115 -186 -110 -215 -128 -14 -9 -52 -31 -85 -49 -33 -18 -62 -36 -65
-40 -3 -3 -12 -10 -20 -14 -8 -4 -24 -12 -35 -19 -54 -32 -236 -144 -282 -174
-67 -42 -139 -88 -228 -144 -87 -55 -513 -337 -529 -350 -6 -5 -49 -36 -96
-68 -336 -234 -590 -426 -879 -665 -86 -72 -161 -135 -167 -140 -6 -6 -44 -40
-85 -76 -164 -144 -474 -463 -604 -621 -221 -267 -426 -634 -461 -823 -2 -14
-9 -37 -14 -50 -10 -28 -24 -168 -23 -236 2 -97 19 -207 40 -260 3 -8 7 -22 9
-31 7 -35 80 -168 130 -235 58 -80 154 -180 229 -239 28 -22 52 -42 55 -45 3
-3 12 -9 21 -15 9 -5 52 -34 95 -63 177 -118 565 -289 834 -367 140 -41 198
-57 320 -88 74 -19 162 -41 195 -48 33 -7 65 -14 70 -15 6 -1 21 -4 35 -7 14
-3 61 -13 105 -22 44 -9 94 -18 110 -21 17 -2 53 -8 80 -13 28 -6 66 -13 85
-15 37 -6 50 -8 173 -31 255 -48 537 -139 718 -233 67 -34 203 -129 262 -183
220 -198 298 -501 210 -819 -72 -264 -251 -585 -503 -905 -52 -66 -97 -122
-100 -125 -3 -3 -32 -36 -65 -75 -130 -153 -530 -560 -696 -710 -93 -83 -124
-111 -204 -183 -16 -15 -77 -67 -136 -117 -58 -49 -125 -107 -150 -128 -224
-193 -846 -674 -1154 -892 -77 -55 -145 -104 -152 -110 -6 -5 -48 -35 -93 -65
-45 -30 -100 -69 -123 -86 -33 -24 -602 -407 -677 -454 -390 -250 -571 -362
-914 -566 -27 -16 -61 -36 -75 -44 -33 -20 -240 -138 -289 -165 -20 -12 -68
-38 -107 -60 -38 -21 -90 -49 -115 -63 -25 -14 -150 -78 -279 -144 l-234 -118
749 0 749 0 40 25 c22 13 57 33 78 45 21 12 83 48 138 81 55 32 104 59 109 59
6 0 10 4 10 9 0 5 10 13 23 17 12 3 29 12 37 19 8 7 35 24 60 38 25 13 67 38
93 53 27 16 56 34 65 39 10 6 74 45 144 88 70 42 130 77 133 77 3 0 11 5 18
11 7 6 102 66 212 134 333 205 362 224 594 373 187 120 442 288 686 452 235
159 628 439 870 620 231 174 546 421 575 450 8 8 38 33 65 55 60 48 266 224
280 239 6 6 30 29 55 50 179 155 529 503 660 656 12 14 31 36 43 50 256 294
424 552 560 860 26 59 66 188 84 273 27 125 24 356 -5 461 -51 179 -128 305
-276 451 -201 199 -497 360 -886 483 -52 17 -106 33 -120 36 -14 4 -77 20
-140 37 -63 16 -131 32 -150 35 -19 3 -52 10 -73 15 -21 6 -50 12 -65 14 -75
12 -101 16 -142 26 -44 9 -69 14 -120 24 -14 2 -90 21 -170 41 -80 19 -152 37
-160 39 -92 22 -350 108 -498 166 -273 108 -549 279 -690 428 -172 182 -263
390 -262 603 1 119 4 145 34 283 18 84 113 304 178 415 185 311 503 681 878
1020 45 41 92 84 104 95 45 41 144 125 172 147 16 13 43 35 59 50 17 14 82 68
145 118 63 51 124 100 135 109 11 9 45 34 75 56 30 21 57 42 60 46 18 22 548
403 773 554 275 186 832 544 949 610 9 6 84 50 165 100 81 49 157 95 168 101
11 6 88 51 170 99 211 124 522 301 655 373 36 19 70 38 75 42 6 4 51 29 100
55 50 27 115 62 145 78 30 17 73 40 95 52 66 36 303 160 410 214 55 29 103 55
107 59 12 12 -1009 22 -1142 12z"/>
<path d="M5860 11433 c-221 -26 -202 -22 -305 -63 -268 -106 -464 -247 -588
-422 -52 -73 -99 -163 -90 -172 4 -3 2 -6 -4 -6 -8 0 -34 -91 -38 -130 0 -3
-3 -9 -6 -15 -5 -9 -5 -230 0 -230 2 0 4 -11 6 -25 9 -77 83 -268 107 -278 4
-2 8 -8 8 -13 0 -20 86 -127 160 -199 224 -219 534 -340 875 -343 96 -1 243
11 305 24 28 6 59 12 68 14 9 2 19 4 22 5 3 1 8 2 12 1 17 -2 220 75 288 110
190 98 342 240 440 414 19 33 35 65 36 70 1 6 11 34 23 63 11 28 19 52 16 52
-2 0 0 12 6 26 16 43 21 93 21 189 0 50 -1 92 -2 95 -2 7 -7 30 -13 65 -9 47
-38 139 -48 149 -5 6 -9 18 -9 28 0 10 -3 18 -7 18 -5 0 -19 23 -32 50 -14 28
-29 50 -33 50 -4 0 -8 5 -8 10 0 26 -139 166 -233 234 -172 126 -364 201 -592
232 -88 11 -277 10 -385 -3z"/>
<path d="M6799 8939 c-229 -157 -422 -342 -571 -550 -71 -99 -88 -125 -88
-136 0 -6 -4 -13 -8 -15 -18 -7 -209 -372 -216 -413 -1 -5 -8 -20 -14 -32 -7
-13 -10 -23 -7 -23 3 0 -2 -11 -11 -25 -9 -14 -13 -25 -9 -25 4 0 3 -6 -3 -12
-8 -11 -57 -138 -66 -173 -1 -5 -13 -42 -25 -82 -12 -39 -24 -80 -26 -90 -2
-10 -4 -18 -5 -18 -1 0 -3 -7 -5 -15 -10 -39 -15 -57 -24 -87 -5 -18 -7 -33
-4 -33 3 0 -1 -7 -8 -17 -8 -9 -13 -18 -11 -20 3 -3 -8 -59 -24 -128 -1 -5 -5
-23 -8 -40 -3 -16 -8 -41 -12 -55 -3 -14 -7 -36 -9 -50 -2 -14 -6 -36 -9 -50
-3 -13 -8 -40 -11 -60 -3 -20 -8 -47 -11 -60 -2 -14 -7 -45 -9 -70 -2 -25 -5
-45 -6 -45 -2 0 -4 -14 -14 -95 -6 -54 -8 -67 -20 -140 -3 -19 -8 -53 -11 -75
-7 -48 -11 -72 -18 -105 -3 -14 -8 -35 -10 -48 -3 -13 -7 -31 -10 -40 -3 -9
-8 -30 -11 -47 -9 -47 -10 -49 -18 -62 -4 -6 -8 -23 -9 -37 -1 -14 -7 -26 -12
-26 -5 0 -7 -3 -4 -6 14 -13 -96 -266 -160 -369 -14 -22 -25 -42 -25 -45 -1
-3 -5 -10 -11 -16 -6 -6 -24 -32 -40 -57 -17 -26 -34 -47 -38 -47 -4 0 -8 -6
-8 -14 0 -8 -3 -16 -7 -18 -5 -1 -28 -28 -53 -58 -75 -91 -229 -236 -323 -304
-23 -17 -44 -33 -47 -36 -6 -8 -138 -93 -205 -133 -110 -65 -303 -159 -438
-212 -78 -31 -152 -60 -163 -65 -39 -16 -348 -107 -439 -129 -49 -13 -115 -29
-145 -36 -47 -12 -190 -41 -295 -60 -16 -3 -98 -16 -182 -30 -84 -13 -171 -29
-195 -36 -24 -6 -54 -13 -68 -16 -43 -7 -279 -72 -415 -114 -180 -56 -367
-123 -505 -182 -14 -6 -27 -11 -30 -12 -3 0 -27 -11 -54 -23 -27 -12 -50 -22
-53 -22 -11 0 -299 -149 -383 -198 -150 -87 -337 -217 -424 -292 -384 -333
-586 -639 -690 -1043 -48 -186 -57 -324 -29 -458 39 -187 110 -325 229 -442
155 -153 400 -261 664 -293 25 -3 56 -7 70 -10 64 -13 348 -16 467 -4 202 19
229 23 428 64 11 3 49 12 85 21 36 9 75 18 88 21 47 10 350 114 427 146 154
65 171 73 290 134 163 82 248 132 390 227 103 69 269 190 285 208 3 3 41 36
85 74 114 98 285 273 355 364 14 17 40 48 57 69 18 20 33 40 33 43 0 3 11 19
25 35 14 16 25 32 25 35 0 3 10 18 23 32 12 15 31 43 42 64 11 21 22 40 26 43
5 4 26 42 90 160 7 14 14 32 15 40 2 8 8 16 13 18 6 2 11 8 11 13 0 6 11 34
25 64 14 30 28 63 30 74 2 12 7 27 12 34 4 6 8 14 9 17 0 3 6 19 13 35 7 17
13 38 14 48 1 9 5 17 10 17 4 0 5 5 2 10 -4 6 -2 16 3 23 8 10 22 56 28 92 1
6 3 12 4 15 4 10 11 46 16 75 2 16 7 39 11 50 4 11 8 29 9 40 2 11 5 38 8 60
8 56 19 172 20 220 0 31 -3 39 -14 36 -8 -2 -181 -5 -385 -6 l-370 -2 1 -42
c1 -22 -2 -41 -6 -41 -4 0 -7 -15 -7 -32 0 -18 -3 -51 -6 -73 -5 -37 -8 -52
-22 -115 -4 -14 -8 -36 -11 -49 -3 -14 -7 -28 -10 -33 -3 -5 -8 -20 -10 -35
-3 -15 -8 -31 -12 -37 -4 -6 -7 -13 -8 -16 -5 -29 -19 -67 -27 -77 -5 -7 -6
-13 -2 -13 4 0 0 -11 -9 -25 -9 -14 -14 -25 -11 -25 3 0 0 -10 -7 -22 -7 -13
-13 -25 -13 -28 -2 -19 -119 -240 -127 -240 -5 0 -7 -4 -4 -8 3 -5 -2 -18 -12
-28 -9 -10 -23 -31 -31 -46 -8 -16 -18 -28 -23 -28 -4 0 -8 -5 -8 -11 0 -21
-135 -184 -240 -290 -88 -90 -149 -144 -250 -222 -155 -121 -419 -268 -647
-360 -181 -73 -459 -158 -563 -172 -25 -3 -72 -11 -105 -16 -140 -25 -339 -19
-495 15 -140 31 -286 138 -350 257 -62 118 -74 288 -31 449 138 514 698 1040
1440 1349 203 85 521 186 651 207 19 3 61 9 92 15 32 5 75 12 96 14 21 2 79
11 128 19 49 8 107 18 129 21 41 5 51 7 140 24 28 6 64 12 80 14 23 4 236 47
405 82 58 12 394 101 489 130 187 56 459 151 556 195 11 5 58 25 105 46 296
129 550 280 780 463 104 83 294 267 356 346 21 27 47 59 57 70 18 20 142 202
164 239 68 121 184 381 198 446 2 8 4 16 5 18 2 1 4 7 5 12 1 6 3 11 5 13 1 1
3 9 5 17 10 39 15 57 24 88 5 18 10 33 9 35 0 1 3 20 8 41 4 22 8 49 9 60 1
12 3 21 5 21 1 0 3 16 5 35 1 19 5 49 8 65 11 54 18 100 22 130 9 68 15 111
20 135 8 37 13 63 19 101 3 19 8 48 12 64 3 17 7 35 8 40 1 6 5 16 10 23 4 7
6 16 3 19 -3 2 2 28 10 56 8 29 16 57 18 62 1 6 8 30 15 55 17 57 16 53 23 70
3 8 15 41 26 73 12 32 29 73 38 90 9 18 18 38 19 46 2 8 8 17 14 21 7 4 11 10
10 14 -4 11 46 97 112 193 68 101 190 233 275 301 23 18 40 38 37 45 -3 7 -23
23 -46 37 -73 45 -228 207 -228 239 0 6 -3 11 -8 11 -6 0 -35 54 -37 70 0 3
-9 22 -19 42 -9 20 -19 45 -21 55 -2 10 -4 19 -5 21 -2 1 -4 11 -5 22 -1 11
-4 22 -5 25 -1 3 -3 13 -4 23 -1 9 -4 22 -7 27 -9 16 -12 80 -11 198 0 59 0
107 -2 107 -1 0 -50 -32 -107 -71z"/>
<path d="M10265 6409 c-60 -4 -157 -16 -215 -28 -58 -11 -123 -23 -145 -26
-22 -4 -56 -10 -75 -15 -19 -5 -51 -12 -70 -14 -19 -3 -66 -12 -105 -21 -38
-9 -81 -18 -95 -20 -46 -8 -85 -16 -140 -30 -30 -8 -66 -16 -80 -19 -40 -7
-284 -66 -300 -73 -8 -3 -22 -7 -30 -8 -18 -2 -229 -63 -250 -72 -8 -3 -19 -7
-25 -7 -17 -3 -203 -66 -265 -90 -128 -51 -210 -88 -320 -144 -69 -35 -127
-67 -130 -71 -3 -3 -25 -19 -50 -35 -248 -159 -381 -401 -341 -621 23 -125 25
-132 88 -260 111 -227 400 -553 733 -825 30 -25 69 -57 85 -72 17 -16 38 -31
48 -34 16 -5 218 147 478 360 47 39 98 80 113 91 16 11 39 31 51 44 l23 24
-33 36 c-89 97 -209 271 -266 382 -143 285 -139 516 14 744 42 63 196 204 292
268 132 87 497 261 595 282 8 2 40 13 71 24 72 26 318 101 344 105 11 2 85 20
165 40 209 51 269 65 320 73 39 6 42 8 20 14 -30 8 -352 7 -505 -2z"/>
<path d="M10302 3503 c-18 -18 -233 -198 -392 -328 -85 -70 -94 -77 -139 -113
l-24 -18 129 -84 c140 -91 500 -317 549 -344 17 -9 44 -25 60 -36 17 -10 41
-25 55 -33 47 -25 75 -42 80 -47 7 -7 38 -25 95 -56 28 -14 57 -32 66 -40 8
-8 19 -14 22 -14 4 0 52 -27 108 -60 55 -33 102 -60 104 -60 3 0 206 -115 315
-178 25 -15 47 -27 50 -27 3 0 21 -10 40 -21 41 -25 554 -304 715 -389 61 -32
133 -70 160 -85 60 -33 217 -115 380 -200 66 -34 172 -90 235 -123 l115 -62
817 0 c450 0 814 2 810 6 -4 3 -95 44 -202 89 -107 45 -217 92 -245 105 -27
12 -113 51 -190 85 -177 79 -234 106 -368 169 -60 28 -110 51 -111 51 -6 0
-401 192 -631 306 -323 160 -730 373 -898 470 -32 19 -60 34 -62 34 -5 0 -477
269 -490 280 -5 4 -26 17 -45 28 -36 20 -193 116 -308 187 -192 120 -546 358
-695 469 -42 31 -78 56 -81 56 -4 0 -14 -8 -24 -17z"/>
<path d="M1977 3100 c-119 -30 -200 -116 -206 -217 -5 -86 73 -179 179 -216
69 -24 192 -16 255 16 139 71 181 205 98 315 -27 37 -90 80 -137 94 -48 14
-147 18 -189 8z"/>
</g>
</svg>
